HIERARCHY
ROOT Hips
{
	OFFSET 52.814400 -11.735116 100.706001
	CHANNELS 6 Xposition Yposition Zposition Xrotation Yrotation Zrotation
	JOINT spine
	{
		OFFSET 0.000000 -0.507026 8.817039
		CHANNELS 3 Xrotation Yrotation Zrotation
		JOINT spine1
		{
			OFFSET 0.000000 -0.000002 10.776596
			CHANNELS 3 Xrotation Yrotation Zrotation
			JOINT spine2
			{
				OFFSET 0.000000 -0.000001 10.325897
				CHANNELS 3 Xrotation Yrotation Zrotation
				JOINT Neck
				{
					OFFSET 0.000000 -1.263955 26.511002
					CHANNELS 3 Xrotation Yrotation Zrotation
					JOINT Head
					{
						OFFSET 0.000000 -0.000001 8.009659
						CHANNELS 3 Xrotation Yrotation Zrotation
						End Site
						{
							OFFSET 0.000000 6.393857 19.387894
						}
					}
				}
				JOINT RightShoulder
				{
					OFFSET -4.347950 0.605420 11.151199
					CHANNELS 3 Xrotation Yrotation Zrotation
					JOINT RightArm
					{
						OFFSET 0.000000 -0.000003 14.625793
						CHANNELS 3 Xrotation Yrotation Zrotation
						JOINT RightArmRoll
						{
							OFFSET 0.000000 -0.000001 7.383392
							CHANNELS 3 Xrotation Yrotation Zrotation
							JOINT RightForeArm
							{
								OFFSET 0.000000 -0.000004 21.505203
								CHANNELS 3 Xrotation Yrotation Zrotation
								JOINT RightForeArmRoll
								{
									OFFSET 0.000000 -0.000001 8.285324
									CHANNELS 3 Xrotation Yrotation Zrotation
									JOINT RightHand
									{
										OFFSET 0.000000 -0.000003 16.626801
										CHANNELS 3 Xrotation Yrotation Zrotation
										End Site
										{
											OFFSET 0.000000 0.000000 0.100006
										}
									}
								}
							}
						}
					}
				}
				JOINT LeftShoulder
				{
					OFFSET 4.347950 0.605420 11.151199
					CHANNELS 3 Xrotation Yrotation Zrotation
					JOINT LeftArm
					{
						OFFSET 0.000000 -0.000003 14.625793
						CHANNELS 3 Xrotation Yrotation Zrotation
						JOINT LeftArmRoll
						{
							OFFSET 0.000000 -0.000001 7.383392
							CHANNELS 3 Xrotation Yrotation Zrotation
							JOINT LeftForeArm
							{
								OFFSET 0.000000 -0.000004 21.505203
								CHANNELS 3 Xrotation Yrotation Zrotation
								JOINT LeftForeArmRoll
								{
									OFFSET 0.000000 -0.000001 8.285324
									CHANNELS 3 Xrotation Yrotation Zrotation
									JOINT LeftHand
									{
										OFFSET 0.000000 -0.000003 16.626801
										CHANNELS 3 Xrotation Yrotation Zrotation
										End Site
										{
											OFFSET 0.000000 0.000000 0.100006
										}
									}
								}
							}
						}
					}
				}
			}
		}
	}
	JOINT RightUpLeg
	{
		OFFSET -7.815102 1.202170 -1.433090
		CHANNELS 3 Xrotation Yrotation Zrotation
		JOINT RightUpLegRoll
		{
			OFFSET 0.000000 -0.000003 19.495903
			CHANNELS 3 Xrotation Yrotation Zrotation
			JOINT RightLeg
			{
				OFFSET 0.000000 0.000004 -24.142700
				CHANNELS 3 Xrotation Yrotation Zrotation
				JOINT RightLegRoll
				{
					OFFSET 0.000000 -0.000004 24.221703
					CHANNELS 3 Xrotation Yrotation Zrotation
					JOINT RightFoot
					{
						OFFSET 0.000000 -0.000004 20.160500
						CHANNELS 3 Xrotation Yrotation Zrotation
						JOINT RightToeBase
						{
							OFFSET 0.000000 -0.000003 16.853195
							CHANNELS 3 Xrotation Yrotation Zrotation
							End Site
							{
								OFFSET 0.007145 0.940779 8.161865
							}
						}
					}
				}
			}
		}
	}
	JOINT LeftUpLeg
	{
		OFFSET 7.815102 1.202170 -1.433090
		CHANNELS 3 Xrotation Yrotation Zrotation
		JOINT LeftUpLegRoll
		{
			OFFSET 0.000000 -0.000003 19.496002
			CHANNELS 3 Xrotation Yrotation Zrotation
			JOINT LeftLeg
			{
				OFFSET 0.000000 -0.000004 24.142601
				CHANNELS 3 Xrotation Yrotation Zrotation
				JOINT LeftLegRoll
				{
					OFFSET 0.000000 -0.000005 24.445602
					CHANNELS 3 Xrotation Yrotation Zrotation
					JOINT LeftFoot
					{
						OFFSET 0.000000 -0.000003 19.936600
						CHANNELS 3 Xrotation Yrotation Zrotation
						JOINT LeftToeBase
						{
							OFFSET 0.000000 -0.000003 16.853195
							CHANNELS 3 Xrotation Yrotation Zrotation
							End Site
							{
								OFFSET -0.032013 0.940779 8.161865
							}
						}
					}
				}
			}
		}
	}
}
MOTION
Frames: 4
Frame Time: 0.041667
52.705093 -12.424818 100.624992 -2.386763 0.899185 3.425547 -2.168316 -0.163512 -0.131365 -0.334180 -0.313489 -0.267148 1.310909 -0.302472 -0.263378 27.078794 -5.919604 3.515225 -9.369776 10.926969 2.561108 -7.314876 -72.442591 -9.639731 -57.416455 -112.804249 -44.052435 -0.000002 -0.000000 0.000000 0.288513 -15.510716 -0.006316 0.000005 0.000008 -3.002400 -5.000210 -7.998820 0.000162 -7.677383 57.778134 8.997814 -25.400183 116.314269 16.836107 -0.000000 0.000021 0.000005 5.653447 9.947020 0.101743 -0.000001 -0.000007 3.009991 -5.000209 7.998773 -0.000148 1.883845 -179.750143 -1.239241 -179.999991 0.000006 -1.074998 175.344425 -1.077429 -0.370731 -0.000001 0.000002 0.027166 68.659418 6.889056 2.154913 25.456971 -7.355618 0.000001 0.581625 176.003211 1.594709 -0.000005 -0.000004 -1.105680 -7.747486 2.182781 0.456953 -0.000002 0.000000 -0.139219 70.293841 -6.871848 -2.106722 25.456950 7.355614 0.000000 
52.707092 -12.425012 100.634987 -2.383892 0.894764 3.423049 -2.170326 -0.163513 -0.132524 -0.338213 -0.312152 -0.269453 1.306868 -0.302185 -0.265695 27.099662 -5.876365 3.506846 -9.357853 10.873215 2.556412 -7.203497 -72.453513 -9.518500 -57.435484 -112.780043 -44.063125 -0.000000 0.000000 0.000001 0.286157 -15.511214 -0.006550 0.000005 0.000008 -3.002399 -5.000210 -7.998823 0.000162 -7.670911 57.811261 8.992671 -25.404042 116.270174 16.827920 -0.000001 0.000020 0.000005 5.649889 9.948086 0.102170 0.000001 -0.000007 3.009990 -5.000208 7.998773 -0.000148 1.879423 -179.745143 -1.239317 -179.999991 0.000006 -1.074998 175.342526 -1.074444 -0.370525 -0.000001 0.000002 0.027166 68.658994 6.889029 2.154934 25.456965 -7.355617 0.000001 0.578747 176.009207 1.598270 -0.000005 -0.000004 -1.105700 -7.744698 2.183578 0.456850 -0.000002 0.000000 -0.139165 70.293841 -6.871848 -2.106823 25.456955 7.355613 0.000001 
52.708794 -12.434318 100.631996 -2.380939 0.890138 3.420380 -2.172558 -0.163513 -0.133706 -0.342671 -0.310736 -0.271804 1.302409 -0.301859 -0.268063 27.125067 -5.831061 3.498338 -9.349888 10.816764 2.552053 -7.084898 -72.465131 -9.389426 -57.453099 -112.755017 -44.071420 -0.000002 0.000000 -0.000000 0.283426 -15.511423 -0.006848 0.000002 0.000008 -3.002399 -5.000209 -7.998823 0.000162 -7.663497 57.846238 8.986549 -25.411997 116.223646 16.824668 -0.000000 0.000022 0.000006 5.643823 9.950326 0.102689 0.000001 -0.000006 3.009990 -5.000209 7.998775 -0.000149 1.875163 -179.739133 -1.239609 -179.999991 0.000006 -1.074998 175.340354 -1.069457 -0.371156 -0.000002 0.000002 0.027167 68.658366 6.889059 2.154880 25.456965 -7.355616 0.000001 0.576360 176.015204 1.601957 -0.000005 -0.000004 -1.105720 -7.740860 2.184411 0.456697 -0.000002 0.000000 -0.139084 70.293520 -6.871841 -2.106841 25.456952 7.355615 -0.000001 
52.712097 -12.427714 100.631989 -2.377944 0.885367 3.417585 -2.174937 -0.163513 -0.134904 -0.347426 -0.309266 -0.274188 1.297658 -0.301505 -0.270461 27.153830 -5.784292 3.489722 -9.344682 10.758354 2.547913 -6.961192 -72.477350 -9.254815 -57.471882 -112.728960 -44.080303 0.000002 -0.000000 -0.000001 0.280434 -15.511529 -0.007185 0.000005 0.000008 -3.002399 -5.000209 -7.998824 0.000164 -7.655418 57.882465 8.979719 -25.421903 116.176422 16.823818 -0.000002 0.000021 0.000005 5.636009 9.953425 0.103271 0.000001 -0.000007 3.009990 -5.000212 7.998774 -0.000148 1.871034 -179.734133 -1.240125 -179.999991 0.000006 -1.074998 175.337950 -1.065465 -0.370876 -0.000002 0.000002 0.027167 68.657622 6.889045 2.154923 25.456965 -7.355617 0.000001 0.574317 176.022198 1.605758 -0.000005 -0.000004 -1.105750 -7.736300 2.185257 0.456510 -0.000002 0.000000 -0.138985 70.292892 -6.871862 -2.106784 25.456950 7.355616 0.000000 
